<?xml version="1.0" encoding="UTF-8" standalone="no"?>
<!DOCTYPE svg PUBLIC "-//W3C//DTD SVG 1.1//EN"
 "http://www.w3.org/Graphics/SVG/1.1/DTD/svg11.dtd">
<!-- Generated by graphviz version 6.0.1 (20220911.1526)
 -->
<!-- Title: grph Pages: 1 -->
<svg width="247pt" height="260pt"
 viewBox="0.00 0.00 247.18 260.00" xmlns="http://www.w3.org/2000/svg" xmlns:xlink="http://www.w3.org/1999/xlink">
<g id="graph0" class="graph" transform="scale(1 1) rotate(0) translate(4 256)">
<title>grph</title>
<polygon fill="white" stroke="none" points="-4,4 -4,-256 243.18,-256 243.18,4 -4,4"/>
<!-- nodo0 -->
<g id="node1" class="node">
<title>nodo0</title>
<ellipse fill="none" stroke="black" cx="119.59" cy="-234" rx="119.68" ry="18"/>
<text text-anchor="middle" x="119.59" y="-230.3" font-family="Times,serif" font-size="14.00">&lt;LISTA_INSTRUCCIONES&gt;</text>
</g>
<!-- nodo1 -->
<g id="node2" class="node">
<title>nodo1</title>
<ellipse fill="none" stroke="black" cx="119.59" cy="-162" rx="107.78" ry="18"/>
<text text-anchor="middle" x="119.59" y="-158.3" font-family="Times,serif" font-size="14.00">&lt;ENCAPSULAMIENTO&gt;</text>
</g>
<!-- nodo0&#45;&gt;nodo1 -->
<g id="edge1" class="edge">
<title>nodo0&#45;&gt;nodo1</title>
<path fill="none" stroke="black" d="M119.59,-215.7C119.59,-207.98 119.59,-198.71 119.59,-190.11"/>
<polygon fill="black" stroke="black" points="123.09,-190.1 119.59,-180.1 116.09,-190.1 123.09,-190.1"/>
</g>
<!-- nodo2 -->
<g id="node3" class="node">
<title>nodo2</title>
<ellipse fill="none" stroke="black" cx="119.59" cy="-90" rx="58.49" ry="18"/>
<text text-anchor="middle" x="119.59" y="-86.3" font-family="Times,serif" font-size="14.00">&lt;PRINTLN&gt;</text>
</g>
<!-- nodo1&#45;&gt;nodo2 -->
<g id="edge2" class="edge">
<title>nodo1&#45;&gt;nodo2</title>
<path fill="none" stroke="black" d="M119.59,-143.7C119.59,-135.98 119.59,-126.71 119.59,-118.11"/>
<polygon fill="black" stroke="black" points="123.09,-118.1 119.59,-108.1 116.09,-118.1 123.09,-118.1"/>
</g>
<!-- nodo3 -->
<g id="node4" class="node">
<title>nodo3</title>
<ellipse fill="none" stroke="black" cx="119.59" cy="-18" rx="30.59" ry="18"/>
<text text-anchor="middle" x="119.59" y="-14.3" font-family="Times,serif" font-size="14.00"> hola </text>
</g>
<!-- nodo2&#45;&gt;nodo3 -->
<g id="edge3" class="edge">
<title>nodo2&#45;&gt;nodo3</title>
<path fill="none" stroke="black" d="M119.59,-71.7C119.59,-63.98 119.59,-54.71 119.59,-46.11"/>
<polygon fill="black" stroke="black" points="123.09,-46.1 119.59,-36.1 116.09,-46.1 123.09,-46.1"/>
</g>
</g>
</svg>
